<?xml version="1.0" encoding="UTF-8"?>
<svg width="210mm" height="297mm" version="1.1" viewBox="0 0 744.09448819 1052.3622047" xmlns="http://www.w3.org/2000/svg">
 <g transform="matrix(.36448 0 0 .36448 760.97 737.2)">
  <g transform="matrix(.72493 0 0 .79461 -346.81 -48.651)">
   <g transform="translate(-17.485 -170.56)" fill-rule="evenodd" stroke="#000">
    <path transform="matrix(1.3794 0 0 1.2585 478.4 61.227)" d="m-1158.5 131.95c154.53 6.2792 318.55-123.72 513.15-525.15-568.9 181.24-1011.3 63.686-966.71-13.892 30.742-53.469 271.2-133.09 927.36-25.944 0 0-204.25-16.508-426.49-30.03-256.96-15.634-447.18 6.1797-461.68 67.163-5.8221 76.1 629.85 93.698 927.93 1.61-75.794 259.86-247.49 593.13-535.5 575.56-182.53-14.237-342.35-257.22-452.35-475.83 178.51 276.24 314.68 417.99 474.27 426.52z" stroke-width="1px"/>
    <path transform="matrix(1.3794 0 0 1.2585 478.4 61.227)" d="m-673.17-282.66s73.487-134.16 190.21-121.62c172.6 18.533-125.59 419.58-352.85 416.49 36.953-10.881 80.84-25.823 152.28-78.973 87.228-64.891 288.22-257.76 150.36-289.43-51.377-11.802-140.01 73.539-140.01 73.539z" stroke-width="1px"/>
    <path d="m-1486.1 150.09s-1008.1 116.43-103.54 310.5c1200.2 257.5 1602.8-105.79 1604-155.14 5.1678-203.44-696.44-172.76-696.44-172.76 204.63 25.065 215.59 4.7018 451.92 54.204 236.33 49.503-89.03 337.68-586.56 316.22-880.29-37.952-1483.2-194.79-669.43-353.03z" stroke-width="1.1323px"/>
    <g transform="matrix(.86629 0 0 .75127 -184.18 -98.422)">
     <path d="m-1154.7-1926.5c-59.197 131.95-78.067 479.76 142.24 646.97 220.31 167.21-147.3 884.05-163.89 883.42-16.587-0.62692 237.78-632.8 135.69-783.43s-114.05-746.96-114.05-746.96z" stroke-width="1px"/>
     <path d="m-1290.4-1752c-59.211 114.52-78.086 416.38 142.28 561.5 220.36 145.12-211.35 795.03-227.94 794.49-16.591-0.5441 301.86-576.98 199.74-707.71s-114.08-648.29-114.08-648.29z" stroke-width=".93172px"/>
     <path d="m-878.54-1703.5c-59.215 109.75-142.09 407.02 78.288 546.09 220.38 139.07-211.37 761.88-227.96 761.36-16.592-0.52141 301.88-552.92 199.75-678.19-102.12-125.28-50.087-629.25-50.083-629.25z" stroke-width=".91212px"/>
    </g>
   </g>
  </g>
 </g>
</svg>
